# xmcd CD database file
#
# Track frame offsets:
#	150
#	16889
#	39721
#	59129
#	71516
#	88716
#	107503
#	130905
#	147167
#	167980
#
# Disc length: 2459 seconds
#
# Revision: 0
# Processed by: cddbd v1.5.2PL0 Copyright (c) Steve Scherf et al.
# Submitted via: CDex 1.51
#
DISCID=8d09990a
DTITLE=Dave Eaton - Ataraxy
DYEAR=2006
DGENRE=Blues
TTITLE0=Brief Relief
TTITLE1=Gradually
TTITLE2=Lament Like Longfellow
TTITLE3=Slippery Sky
TTITLE4=Beyond Katya
TTITLE5=Love Vigilantes
TTITLE6=My Grief, My Glory
TTITLE7=The Harness
TTITLE8=Candlelight Vigil
TTITLE9=Holding Pattern
EXTD=YEAR: 2006
EXTT0=
EXTT1=
EXTT2=
EXTT3=
EXTT4=
EXTT5=
EXTT6=
EXTT7=
EXTT8=
EXTT9=
PLAYORDER=
